<?xml version="1.0" encoding="utf-8"?>
<!-- Generator: Adobe Illustrator 24.2.1, SVG Export Plug-In . SVG Version: 6.00 Build 0)  -->
<svg version="1.1" id="Artwork" xmlns="http://www.w3.org/2000/svg" xmlns:xlink="http://www.w3.org/1999/xlink" x="0px" y="0px"
	 width="125.1px" height="27.78px" viewBox="0 0 125.1 27.78" style="enable-background:new 0 0 125.1 27.78;" xml:space="preserve"
	>
<style type="text/css">
	.st0{fill:#FFFFFF;}
	.st1{fill-rule:evenodd;clip-rule:evenodd;fill:url(#SVGID_1_);}
	.st2{fill-rule:evenodd;clip-rule:evenodd;fill:#FFFFFF;}
</style>
<g id="XMLID_229_">
	<path id="XMLID_252_" class="st0" d="M38.17,20.42h-4.74l-1.14,3.36h-2.01l4.49-12.43h2.08l4.49,12.43H39.3L38.17,20.42z
		 M33.92,18.87h3.76l-1.85-5.45h-0.05L33.92,18.87z"/>
	<path id="XMLID_249_" class="st0" d="M51.03,19.25c0,2.82-1.51,4.63-3.78,4.63c-1.29,0-2.32-0.58-2.85-1.58h-0.04v4.49H42.5V14.72
		h1.8v1.51h0.03c0.52-0.97,1.62-1.6,2.89-1.6C49.51,14.62,51.03,16.44,51.03,19.25z M49.11,19.25c0-1.83-0.95-3.04-2.39-3.04
		c-1.42,0-2.38,1.23-2.38,3.04c0,1.83,0.96,3.05,2.38,3.05C48.17,22.3,49.11,21.1,49.11,19.25z"/>
	<path id="XMLID_246_" class="st0" d="M60.99,19.25c0,2.82-1.51,4.63-3.78,4.63c-1.29,0-2.32-0.58-2.85-1.58h-0.04v4.49h-1.86V14.72
		h1.8v1.51h0.03c0.52-0.97,1.62-1.6,2.89-1.6C59.47,14.62,60.99,16.44,60.99,19.25z M59.08,19.25c0-1.83-0.95-3.04-2.39-3.04
		c-1.42,0-2.38,1.23-2.38,3.04c0,1.83,0.96,3.05,2.38,3.05C58.13,22.3,59.08,21.1,59.08,19.25z"/>
	<path id="XMLID_244_" class="st0" d="M62.49,11.35h1.86v12.43h-1.86C62.49,23.78,62.49,11.35,62.49,11.35z"/>
	<path id="XMLID_241_" class="st0" d="M74.03,21.12c-0.25,1.64-1.85,2.77-3.9,2.77c-2.64,0-4.27-1.77-4.27-4.6
		c0-2.84,1.65-4.69,4.19-4.69c2.51,0,4.08,1.72,4.08,4.47v0.64h-6.4v0.11c0,1.55,0.97,2.57,2.44,2.57c1.03,0,1.84-0.49,2.09-1.27
		C72.26,21.12,74.03,21.12,74.03,21.12z M67.74,18.41h4.53c-0.04-1.39-0.93-2.3-2.22-2.3C68.77,16.11,67.84,17.04,67.74,18.41z"/>
	<path id="XMLID_239_" class="st0" d="M90.18,23.78v-9.15h-0.06l-3.75,9.05h-1.43l-3.76-9.05h-0.06v9.15h-1.76V11.35h2.23l4.02,9.81
		h0.07l4.01-9.81h2.24v12.43C91.93,23.78,90.18,23.78,90.18,23.78z"/>
	<path id="XMLID_237_" class="st0" d="M101.85,23.78h-1.78v-1.56h-0.04c-0.52,1.09-1.42,1.66-2.81,1.66c-1.97,0-3.18-1.27-3.18-3.35
		v-5.81h1.86v5.45c0,1.38,0.65,2.11,1.94,2.11c1.34,0,2.15-0.93,2.15-2.34v-5.22h1.86C101.85,14.72,101.85,23.78,101.85,23.78z"/>
	<path id="XMLID_235_" class="st0" d="M107.14,14.62c2.01,0,3.45,1.11,3.49,2.71h-1.75c-0.08-0.8-0.76-1.29-1.79-1.29
		c-1.01,0-1.68,0.47-1.68,1.17c0,0.54,0.45,0.9,1.39,1.14l1.52,0.35c1.83,0.44,2.51,1.11,2.51,2.44c0,1.64-1.55,2.76-3.76,2.76
		c-2.14,0-3.57-1.09-3.71-2.75h1.84c0.13,0.87,0.83,1.34,1.96,1.34c1.11,0,1.81-0.46,1.81-1.18c0-0.56-0.34-0.86-1.29-1.1l-1.62-0.4
		c-1.64-0.4-2.46-1.23-2.46-2.49C103.59,15.71,105.03,14.62,107.14,14.62z"/>
	<path id="XMLID_232_" class="st0" d="M112.28,12.33c0-0.59,0.48-1.07,1.08-1.07s1.09,0.47,1.09,1.07c0,0.59-0.48,1.06-1.09,1.06
		C112.77,13.39,112.28,12.92,112.28,12.33z M112.43,14.72h1.86v9.06h-1.86V14.72z"/>
	<path id="XMLID_230_" class="st0" d="M122.3,17.84c-0.16-0.96-0.91-1.67-2.14-1.67c-1.43,0-2.38,1.2-2.38,3.08
		c0,1.93,0.96,3.09,2.39,3.09c1.15,0,1.91-0.58,2.12-1.63h1.79c-0.21,1.9-1.73,3.18-3.93,3.18c-2.58,0-4.27-1.77-4.27-4.64
		c0-2.82,1.69-4.64,4.25-4.64c2.33,0,3.77,1.46,3.93,3.23C124.06,17.84,122.3,17.84,122.3,17.84z"/>
</g>
<g>
	<path class="st0" d="M34.65,7.54h-3.78V1.48h0.94v5.19h2.84V7.54z"/>
	<path class="st0" d="M35.74,1.61c0-0.31,0.25-0.55,0.58-0.55c0.34,0,0.58,0.24,0.58,0.55s-0.25,0.55-0.58,0.55
		C35.99,2.16,35.74,1.93,35.74,1.61z M35.88,2.97h0.9v4.57h-0.9V2.97z"/>
	<path class="st0" d="M39.9,2.88c1.03,0,1.7,0.48,1.79,1.28h-0.86c-0.08-0.34-0.41-0.55-0.92-0.55c-0.5,0-0.88,0.24-0.88,0.6
		c0,0.27,0.23,0.45,0.73,0.56l0.76,0.18c0.87,0.2,1.28,0.58,1.28,1.25c0,0.86-0.8,1.44-1.89,1.44s-1.8-0.49-1.88-1.3h0.9
		c0.11,0.35,0.45,0.57,1,0.57c0.56,0,0.96-0.25,0.96-0.62c0-0.27-0.21-0.45-0.67-0.56l-0.8-0.18c-0.87-0.21-1.27-0.6-1.27-1.28
		C38.12,3.45,38.86,2.88,39.9,2.88z"/>
	<path class="st0" d="M44.17,1.83v1.16h0.99v0.76h-0.99V6.1c0,0.48,0.2,0.69,0.65,0.69c0.14,0,0.22-0.01,0.34-0.02v0.75
		c-0.15,0.03-0.32,0.05-0.49,0.05c-1,0-1.4-0.35-1.4-1.23V3.75h-0.73V2.99h0.73V1.83H44.17z"/>
	<path class="st0" d="M50.16,6.3c-0.21,0.82-0.94,1.32-1.98,1.32c-1.31,0-2.11-0.9-2.11-2.36s0.82-2.39,2.11-2.39
		c1.27,0,2.04,0.87,2.04,2.3V5.5h-3.23v0.05c0.03,0.8,0.5,1.31,1.22,1.31c0.55,0,0.92-0.2,1.09-0.55L50.16,6.3L50.16,6.3z
		 M46.99,4.83h2.31c-0.02-0.72-0.46-1.18-1.12-1.18S47.04,4.12,46.99,4.83z"/>
	<path class="st0" d="M51.42,2.97h0.87V3.7h0.07c0.22-0.51,0.67-0.81,1.36-0.81c1.02,0,1.58,0.61,1.58,1.7v2.96h-0.9V4.8
		c0-0.73-0.32-1.1-0.99-1.1c-0.67,0-1.09,0.44-1.09,1.16v2.67h-0.9C51.42,7.53,51.42,2.97,51.42,2.97z"/>
	<path class="st0" d="M58.94,5.25c0-1.47,0.82-2.37,2.16-2.37c1.33,0,2.15,0.9,2.15,2.37c0,1.48-0.82,2.38-2.15,2.38
		C59.76,7.62,58.94,6.73,58.94,5.25z M62.32,5.25c0-0.99-0.45-1.57-1.23-1.57c-0.79,0-1.23,0.58-1.23,1.57c0,1,0.44,1.57,1.23,1.57
		S62.32,6.24,62.32,5.25z"/>
	<path class="st0" d="M64.46,2.97h0.87V3.7h0.07c0.22-0.51,0.67-0.81,1.36-0.81c1.02,0,1.58,0.61,1.58,1.7v2.96h-0.9V4.8
		c0-0.73-0.32-1.1-0.99-1.1s-1.09,0.44-1.09,1.16v2.67h-0.9C64.46,7.53,64.46,2.97,64.46,2.97z"/>
</g>
<g>
	<g>
		
			<linearGradient id="SVGID_1_" gradientUnits="userSpaceOnUse" x1="12.58" y1="607.0658" x2="12.58" y2="582.5424" gradientTransform="matrix(1 0 0 1 0 -582)">
			<stop  offset="0" style="stop-color:#FA233B"/>
			<stop  offset="1" style="stop-color:#FB5C74"/>
		</linearGradient>
		<path class="st1" d="M25.16,7.87c0-0.3,0-0.6,0-0.9c0-0.25,0-0.51-0.01-0.76C25.14,5.66,25.1,5.1,25,4.56
			c-0.1-0.55-0.26-1.07-0.52-1.57c-0.25-0.49-0.58-0.95-0.97-1.34s-0.84-0.72-1.34-0.97c-0.5-0.26-1.02-0.42-1.57-0.52
			s-1.1-0.13-1.65-0.15C18.7,0.01,18.45,0,18.19,0c-0.3,0-0.6,0-0.9,0H7.87c-0.3,0-0.6,0-0.9,0C6.72,0,6.46,0,6.21,0.01
			C5.66,0.03,5.1,0.06,4.56,0.16C4,0.26,3.49,0.42,2.99,0.68c-0.5,0.25-0.95,0.58-1.34,0.97S0.93,2.49,0.68,2.99
			C0.42,3.49,0.26,4,0.16,4.56c-0.1,0.55-0.13,1.1-0.15,1.65C0.01,6.46,0,6.72,0,6.97c0,0.3,0,0.6,0,0.9v9.42c0,0.3,0,0.6,0,0.9
			c0,0.25,0,0.51,0.01,0.76c0.01,0.55,0.05,1.11,0.15,1.65c0.1,0.55,0.26,1.07,0.52,1.57c0.25,0.49,0.58,0.95,0.97,1.34
			s0.84,0.72,1.34,0.97C3.49,24.74,4,24.91,4.56,25c0.55,0.1,1.1,0.13,1.65,0.15c0.25,0.01,0.51,0.01,0.76,0.01c0.3,0,0.6,0,0.9,0
			h9.42c0.3,0,0.6,0,0.9,0c0.25,0,0.51,0,0.76-0.01c0.55-0.01,1.11-0.05,1.65-0.15c0.55-0.1,1.07-0.26,1.57-0.52
			c0.49-0.25,0.95-0.58,1.34-0.97s0.72-0.84,0.97-1.34c0.26-0.5,0.42-1.02,0.52-1.57s0.13-1.1,0.15-1.65
			c0.01-0.25,0.01-0.51,0.01-0.76c0-0.3,0-0.6,0-0.9V7.87z"/>
	</g>
	<g id="Glyph_21_">
		<g>
			<path class="st2" d="M17.79,3.84c-0.06,0.01-0.6,0.1-0.67,0.11L9.64,5.47l0,0c-0.2,0.04-0.35,0.11-0.47,0.21
				C9.03,5.8,8.95,5.97,8.92,6.16c0,0.05-0.01,0.13-0.01,0.26c0,0,0,7.64,0,9.36c0,0.22-0.02,0.43-0.17,0.61s-0.33,0.24-0.55,0.28
				c-0.16,0.03-0.33,0.07-0.49,0.1c-0.62,0.12-1.02,0.21-1.38,0.35c-0.35,0.14-0.61,0.31-0.82,0.52c-0.41,0.43-0.58,1.02-0.52,1.56
				c0.05,0.47,0.26,0.91,0.62,1.25c0.24,0.22,0.55,0.39,0.91,0.47c0.37,0.08,0.77,0.05,1.35-0.07c0.31-0.06,0.6-0.16,0.87-0.32
				s0.51-0.38,0.69-0.64c0.18-0.26,0.3-0.55,0.37-0.86c0.07-0.32,0.08-0.61,0.08-0.93V9.98c0-0.44,0.12-0.55,0.47-0.63
				c0,0,6.22-1.25,6.51-1.31c0.4-0.08,0.6,0.04,0.6,0.46v5.54c0,0.22,0,0.44-0.15,0.62s-0.33,0.24-0.55,0.28
				c-0.16,0.03-0.33,0.07-0.49,0.1c-0.62,0.12-1.02,0.21-1.38,0.35c-0.35,0.14-0.61,0.31-0.82,0.52c-0.41,0.43-0.59,1.02-0.54,1.56
				c0.05,0.47,0.27,0.91,0.64,1.25c0.24,0.22,0.55,0.39,0.91,0.46c0.37,0.08,0.77,0.05,1.35-0.07c0.31-0.06,0.6-0.15,0.87-0.32
				c0.27-0.16,0.51-0.38,0.69-0.64s0.3-0.55,0.37-0.86c0.07-0.32,0.07-0.61,0.07-0.93V4.51C18.42,4.07,18.19,3.81,17.79,3.84z"/>
		</g>
	</g>
</g>
</svg>
